<svg xmlns="http://www.w3.org/2000/svg" viewBox="0 0 64 64">
  <defs>
    <linearGradient id="g" x1="0%" y1="0%" x2="100%" y2="100%">
      <stop offset="0%" stop-color="#f5d99a"/>
      <stop offset="55%" stop-color="#d9a651"/>
      <stop offset="100%" stop-color="#9c6f2a"/>
    </linearGradient>
  </defs>
  <polygon points="20,4 44,4 60,20 60,44 44,60 20,60 4,44 4,20" fill="url(#g)"/>
  <g fill="#1a140a" transform="translate(32 33)">
    <path d="M -3.2 8.6 C -7.8 8.6 -10.6 5.8 -10.6 2.0 C -10.6 -1.2 -8.4 -3.4 -5.0 -5.4 C -6.6 -7.2 -7.4 -8.8 -7.4 -10.6 C -7.4 -13.8 -4.8 -16.0 -1.0 -16.0 C 2.6 -16.0 5.0 -14.0 5.0 -11.0 C 5.0 -8.6 3.4 -6.8 0.4 -5.0 L 4.6 0.2 C 5.6 -1.2 6.2 -3.0 6.4 -5.0 L 9.6 -5.0 C 9.2 -2.0 8.0 0.6 6.4 2.6 L 10.8 8.0 L 6.6 8.0 L 4.4 5.2 C 2.2 7.4 -0.2 8.6 -3.2 8.6 Z M -2.8 5.6 C -0.8 5.6 0.8 4.8 2.4 3.2 L -2.8 -3.4 C -5.4 -2.0 -6.8 -0.4 -6.8 1.6 C -6.8 4.0 -5.2 5.6 -2.8 5.6 Z M -1.0 -7.0 C 1.0 -8.4 2.2 -9.6 2.2 -11.2 C 2.2 -12.6 1.0 -13.4 -0.6 -13.4 C -2.4 -13.4 -3.6 -12.4 -3.6 -10.6 C -3.6 -9.4 -3.0 -8.4 -1.6 -6.8 Z"/>
  </g>
</svg>
